<svg xmlns="http://www.w3.org/2000/svg" height="48" width="48">
 <g transform="translate(0 -1004.4)">
  <path fill="none" stroke-linejoin="round" stroke="#ffe245" stroke-width="1.4" d="m24 1051.7-20.179-11.65-6e-7 -23.301 20.179-11.65 20.179 11.65v23.301z"/>
  <path d="m17.823 1035.8h-7.9358v-1.1548h0.080566q0.46997 0 0.8728-0.067 0.41626-0.067 0.71167-0.2685 0.30884-0.2149 0.4834-0.6043 0.18799-0.3894 0.18799-1.0339v-8.5803q0-0.6043-0.18799-0.9668-0.17456-0.376-0.4834-0.5774t-0.7251-0.2686q-0.40283-0.067-0.85938-0.067h-0.080566v-1.1548h4.2297l0.52368 2.7258h0.13428q0.26856-0.6176 0.55054-1.1547 0.28198-0.5506 0.68481-0.9534 0.41626-0.4163 1.0205-0.6445 0.60425-0.2417 1.5173-0.2417 1.5039 0 2.229 0.5236 0.73852 0.5237 0.73852 1.4771 0 0.4297-0.1477 0.7922-0.13428 0.3626-0.44312 0.6311-0.30884 0.2552-0.79224 0.4029-0.4834 0.1342-1.1816 0.1342 0-1.1413-0.32227-1.6381-0.32226-0.5103-1.1279-0.5103-0.51025 0-0.91309 0.2954-0.40283 0.282-0.71167 0.7654-0.29541 0.47-0.51025 1.0876-0.20142 0.6177-0.33569 1.2757-0.12085 0.6445-0.17456 1.289-0.05371 0.6446-0.05371 1.1682v4.3238q0 0.6042 0.17456 0.9802 0.18799 0.3626 0.49683 0.5505 0.30884 0.188 0.71167 0.2552 0.41626 0.054 0.8728 0.054h0.76538v1.1548z" fill="#ffe245"/>
  <path d="m38.113 1023.3h-3.0481q-0.04028 1.7859-0.08057 3.451-0.01343 0.7116-0.02686 1.4636-0.01343 0.7519-0.02685 1.477-0.01343 0.7117-0.02686 1.3562 0 0.6446 0 1.1414 0 0.6982 0.13428 1.1145 0.1477 0.4162 0.37598 0.6445 0.2417 0.2149 0.52368 0.282 0.29541 0.067 0.57739 0.067 0.30884 0 0.56396-0.067 0.26856-0.067 0.53711-0.1477v1.2622q-0.32227 0.2686-0.89966 0.4431-0.56396 0.188-1.1816 0.188-0.60425 0-1.1011-0.188-0.49683-0.188-0.84595-0.5774t-0.53711-1.0071q-0.18799-0.6176-0.18799-1.4904 0-0.4969 0.02685-1.1682 0.02686-0.6849 0.06714-1.4368 0.04028-0.7654 0.09399-1.5576 0.05371-0.8057 0.12085-1.5576 0.1477-1.7725 0.32226-3.6927h-5.2502l-0.36255 7.7881q-0.05371 1.1951-0.26855 2.0813-0.20142 0.8728-0.6311 1.4502-0.41626 0.5774-1.0876 0.8594-0.67139 0.282-1.6382 0.282h-1.1548v-1.1548q0.53711 0 0.98022-0.188 0.45654-0.2014 0.80566-0.6714 0.36255-0.4834 0.60425-1.2891 0.25513-0.8056 0.3894-2.0275l0.79224-7.1302h-1.0474q-0.79224 0-1.1816 0.4969-0.3894 0.4834-0.4834 1.2353h-1.1548q0-0.8191 0.16113-1.5442t0.52368-1.2756q0.36255-0.5506 0.93994-0.8728 0.59082-0.3223 1.4233-0.3223h12.26v2.2827z" fill="#ffe245"/>
 </g>
</svg>
